<?xml version="1.0" encoding="UTF-8" standalone="no"?>
<!-- Created with Inkscape (http://www.inkscape.org/) -->

<svg
   width="333.37527mm"
   height="208.56769mm"
   viewBox="0 0 333.37527 208.56769"
   version="1.1"
   id="svg1894"
   xmlns="http://www.w3.org/2000/svg"
   xmlns:svg="http://www.w3.org/2000/svg">
  <defs
     id="defs1891" />
  <g
     id="layer1"
     transform="translate(54.913442,-18.845189)">
    <g
       id="Page-1"
       stroke="none"
       stroke-width="1"
       fill="none"
       fill-rule="evenodd"
       style="fill:#000000"
       transform="matrix(3.96875,0,0,3.96875,-54.913467,18.618507)">
      <g
         id="spllogo"
         transform="translate(0,0.04)"
         fill="#ffffff"
         style="fill:#000000">
        <path
           d="m 25.746694,28.706917 c -0.216889,-1.117778 -0.864223,-1.757779 -1.775557,-1.757779 -0.135334,0 -0.276445,0.01467 -0.420667,0.04067 -0.637334,0.125333 -1.311113,0.640445 -1.75978,1.349557 -0.536667,0.846445 -0.719556,1.901112 -0.512,2.969113 0.102889,0.530667 0.48,1.761779 1.757557,1.761779 0.139556,0 0.287334,-0.01422 0.438445,-0.04444 1.442445,-0.28 2.720669,-2.012446 2.272002,-4.318893 z m 18.008248,-1.519112 -9.01e-4,-0.07089 -0.188,0.03556 c -0.504667,0.09889 -3.008002,0.662445 -2.726224,2.112001 0.06422,0.33089 0.298,0.506223 0.677556,0.506223 0.09467,0 0.197778,-0.01133 0.307778,-0.03156 1.044445,-0.203778 1.933557,-1.573113 1.929791,-2.551336 z M 77.758291,7.5862339 77.355402,20.611133 73.383176,21.382689 72.978954,8.5151236 Z M 71.51473,18.977132 v 8.403118 l -4.597337,0.893778 0.01244,-7.759339 c -0.008,-0.272223 -0.03333,-0.543112 -0.06711,-0.717556 -0.128001,-0.657557 -0.457556,-0.857334 -1.136001,-0.723779 -1.658002,0.322889 -2.633114,2.279558 -2.621114,3.984892 l 0.0082,5.954449 -4.596893,0.894446 v -2.098002 c -0.169556,0.484 -0.420223,0.946001 -0.791778,1.360668 -0.846223,0.947778 -2.135558,1.612223 -3.733559,1.922001 -0.531334,0.104445 -1.080001,0.155111 -1.63289,0.155111 -2.110224,0 -3.684003,-0.742889 -4.058448,-0.936667 l 0.004,1.582001 -4.229337,0.822223 -0.0011,-1.000889 c -8.89e-4,-0.05978 -8.89e-4,-0.117334 0.0011,-0.175778 -0.484889,0.683556 -1.494667,1.77289 -3.150002,2.093557 -0.310889,0.06178 -0.624889,0.092 -0.935334,0.092 -1.265334,0 -2.700891,-0.536667 -3.346003,-1.959557 l 0.0024,2.425779 -0.118889,0.04111 c -0.02311,0.0073 -0.567779,0.189111 -1.161779,0.304222 -0.488667,0.09378 -0.948001,0.141778 -1.367557,0.141778 -1.949112,0 -3.132002,-1.006001 -3.518002,-2.989114 -0.07156,-0.370222 -0.08733,-0.797333 -0.09978,-1.222889 -0.168667,1.128667 -0.545778,2.205779 -1.157779,3.15978 -1.062445,1.657112 -2.68778,2.805113 -4.458226,3.148891 -1.276668,0.247334 -2.508446,0.05422 -3.464003,-0.545778 0.01045,0.198223 0.01911,0.479778 0.01911,0.818001 l 0.01311,5.186671 -4.572004,0.890667 -0.01022,-7.166006 c -0.169556,0.47089 -0.416445,0.921334 -0.779112,1.331335 -0.844667,0.945556 -2.136002,1.610223 -3.733336,1.919779 -0.531556,0.104444 -1.080446,0.156222 -1.631779,0.156222 -2.3764467,0 -4.0788925,-0.945112 -4.1500037,-0.986667 l -0.1451112,-0.08333 1.7397792,-3.446225 0.158889,0.09022 c 0.010222,0.0056 1.0220008,0.576223 2.3828907,0.576223 0.307778,0 0.614001,-0.02822 0.910445,-0.08578 0.592445,-0.115556 1.171557,-0.410445 1.114223,-0.703557 -0.05644,-0.290666 -0.766222,-0.457555 -1.518001,-0.632222 -1.5880011,-0.371556 -3.9877808,-0.935334 -4.4764479,-3.45267 -0.2344446,-1.203778 0.1584446,-2.427557 1.105112,-3.443336 0.8733341,-0.936001 2.1646684,-1.626446 3.5411139,-1.894668 0.602001,-0.116667 1.209112,-0.176222 1.803335,-0.176222 2.048668,0 3.308225,0.689556 3.360891,0.718889 l 0.132223,0.07222 -1.381335,3.581114 -0.175333,-0.09911 c -0.0071,-0.0038 -0.755778,-0.419778 -1.953113,-0.419778 -0.346,0 -0.7,0.03556 -1.053112,0.102889 -0.578445,0.113556 -1.167334,0.421112 -1.109112,0.727778 0.04289,0.220001 0.720445,0.371334 1.374668,0.516445 1.52289,0.343778 3.747336,0.868001 4.478226,3.030669 l -0.01089,-8.81134 4.179337,-0.812667 0.0018,0.873334 c 8.89e-4,0.07578 0,0.151555 -0.0029,0.224222 0.752445,-1.034001 1.92778,-1.77889 3.250003,-2.034446 0.390445,-0.07622 0.777334,-0.114667 1.149334,-0.114667 2.55378,0 4.427337,1.795113 5.012004,4.804893 0.01422,0.07267 0.0096,0.145778 0.02267,0.220222 l -0.0027,-10.905564 4.596671,-0.892667 0.01067,12.852677 c -0.01155,0.338222 0.02222,0.753778 0.06067,0.95 0.08733,0.449556 0.369556,0.589556 0.912223,0.48689 0.162445,-0.03378 0.290223,-0.06511 0.382223,-0.08978 0.0073,-1.427335 0.760445,-2.722891 2.230668,-3.780225 1.848224,-1.329557 4.218892,-1.895335 5.152226,-2.075558 l 0.02289,-0.0056 c -0.0091,-0.134 -0.02178,-0.257778 -0.02911,-0.300889 -0.134889,-0.691779 -0.633111,-0.898445 -1.618001,-0.706001 -1.534668,0.297112 -3.338225,1.812002 -3.356447,1.827335 l -0.167556,0.142 -1.692224,-3.33778 0.108667,-0.08756 c 0.09578,-0.07978 2.396669,-1.941335 5.208004,-2.487558 0.522667,-0.102222 1.044446,-0.153111 1.548668,-0.153111 1.418668,0 3.88267,0.434667 4.448893,3.34467 0.06667,0.342889 0.106,0.760667 0.119778,1.280667 l 0.01489,5.949561 1.506445,-2.987781 0.159556,0.09156 c 0.01044,0.006 1.020223,0.576889 2.382002,0.576889 0.307556,0 0.614667,-0.028 0.910667,-0.08822 0.592001,-0.113778 1.171557,-0.408222 1.114223,-0.700667 -0.05644,-0.291334 -0.766223,-0.457556 -1.51889,-0.633778 -1.588001,-0.372445 -3.985559,-0.934001 -4.476004,-3.453559 -0.233333,-1.203556 0.15889,-2.426891 1.105779,-3.440891 0.87289,-0.93689 2.163113,-1.627335 3.540225,-1.894446 0.602667,-0.118445 1.209335,-0.177556 1.803557,-0.177556 2.048446,0 3.309558,0.689112 3.361781,0.719112 l 0.131778,0.07355 -1.382002,3.579114 -0.174666,-0.09867 c -0.008,-0.004 -0.756668,-0.419778 -1.953335,-0.419778 -0.345778,0 -0.700223,0.03511 -1.052223,0.103556 -0.579556,0.112 -1.16889,0.422889 -1.109779,0.726889 0.04311,0.219556 0.719334,0.37089 1.374446,0.517556 1.535112,0.34489 3.78178,0.875112 4.494892,3.082225 V 11.326015 l 4.596893,-0.894001 -0.0013,5.972227 c 0,0.157333 -0.0024,0.305111 -0.0051,0.436 0.701112,-1.098223 2.038446,-2.010223 3.424447,-2.279557 0.431779,-0.08378 0.848001,-0.126 1.238224,-0.126 1.387778,0 3.148002,0.532889 3.640225,3.075558 0.08933,0.454445 0.103111,0.973334 0.104444,1.46689 z m 1.782891,3.877781 4.23067,-0.820668 0.0036,4.176893 -4.229559,0.821556 z m 10.702453,13.9809 V 0.01711676 L 81.74385,0.43911709 1.5540076,15.459796 6.4e-6,15.750685 V 52.569603 L 2.255786,52.148047 82.446295,37.127369 Z"
           id="Shape"
           style="fill:#000000" />
      </g>
    </g>
  </g>
</svg>
